PathFileType	4	(X/Y/Z)	c:/Users/goper/Files/vsCode/490R/osim_files/C05/C05_Slow_04.trc
DataRate	CameraRate	NumFrames	NumMarkers	Units                	OrigDataRate	OrigDataStartFrame	OrigNumFrames
250.00	250.00	10	36	mm	250.0	2055	2739
                Frame#	Time	LPSIS			LASIS			LTH1			LTH2			LTH3			LTH4			LLFE			LMFE			LSH1			LSH2			LSH3			LSH4			LLMAL			LMMAL			LCAL			LMTP5			LTOE			LMTP1			RPSIS			RASIS			RTH1			RTH2			RTH3			RTH4			RLFE			RMFE			RSH1			RSH2			RSH3			RSH4			RLMAL			RMMAL			RCAL			RMTP1			RTOE			RMTP5		
		X1	Y1	Z1	X2	Y2	Z2	X3	Y3	Z3	X4	Y4	Z4	X5	Y5	Z5	X6	Y6	Z6	X7	Y7	Z7	X8	Y8	Z8	X9	Y9	Z9	X10	Y10	Z10	X11	Y11	Z11	X12	Y12	Z12	X13	Y13	Z13	X14	Y14	Z14	X15	Y15	Z15	X16	Y16	Z16	X17	Y17	Z17	X18	Y18	Z18	X19	Y19	Z19	X20	Y20	Z20	X21	Y21	Z21	X22	Y22	Z22	X23	Y23	Z23	X24	Y24	Z24	X25	Y25	Z25	X26	Y26	Z26	X27	Y27	Z27	X28	Y28	Z28	X29	Y29	Z29	X30	Y30	Z30	X31	Y31	Z31	X32	Y32	Z32	X33	Y33	Z33	X34	Y34	Z34	X35	Y35	Z35	X36	Y36	Z36

2055	8.21600	0.00000	0.00000	0.00000	-3638.82739	1026.94104	375.46490	-3488.81396	719.96820	420.57706	0.00000	0.00000	0.00000	-3561.92041	715.17590	410.98636	-3560.60864	657.48364	403.27478	-3510.00366	548.28967	385.48309	-3503.63818	543.55157	267.91467	-3386.55444	388.39557	383.70285	0.00000	0.00000	0.00000	-3446.73169	374.53256	395.33557	-3433.88818	333.88977	385.95956	-3370.27100	117.11241	335.35477	-3400.54224	131.19757	254.57011	0.00000	0.00000	0.00000	0.00000	0.00000	0.00000	-3707.07153	722.16150	79.65829	0.00000	0.00000	0.00000	0.00000	0.00000	0.00000	-3632.32983	1030.72034	145.47011	0.00000	0.00000	0.00000	-3758.57959	575.06274	105.92786	-3736.34326	668.36273	89.44479	0.00000	0.00000	0.00000	0.00000	0.00000	0.00000	-3757.00903	549.73846	216.55748	0.00000	0.00000	0.00000	0.00000	0.00000	0.00000	-3766.28003	418.71332	86.42022	-3773.57764	373.54553	88.36261	-3787.94189	132.04306	113.25932	0.00000	0.00000	0.00000	0.00000	0.00000	0.00000	-3487.39624	28.57157	300.40201	0.00000	0.00000	0.00000	0.00000	0.00000	0.00000
2056	8.22000	0.00000	0.00000	0.00000	-3643.04883	1026.41748	375.26675	-3491.34082	719.88855	420.58673	0.00000	0.00000	0.00000	-3564.49121	714.87415	410.81232	-3562.94653	657.26709	403.10593	-3511.70459	548.16309	385.48633	-3505.24121	543.48706	267.94693	0.00000	0.00000	0.00000	-3384.74536	346.62704	379.49811	-3447.60913	374.57272	395.36847	-3434.81006	334.10272	385.98730	-3370.13916	117.35526	335.28787	-3400.82349	131.42937	254.60390	0.00000	0.00000	0.00000	0.00000	0.00000	0.00000	-3709.56055	720.38147	79.21684	0.00000	0.00000	0.00000	0.00000	0.00000	0.00000	-3636.82153	1030.04700	145.18347	0.00000	0.00000	0.00000	-3760.96924	573.56433	105.63510	-3738.43555	666.42004	88.93163	0.00000	0.00000	0.00000	0.00000	0.00000	0.00000	-3759.57764	548.14813	216.31049	0.00000	0.00000	0.00000	0.00000	0.00000	0.00000	-3771.92603	418.03833	86.17233	-3780.28223	372.97391	88.16325	-3801.98706	133.07785	112.62894	0.00000	0.00000	0.00000	0.00000	0.00000	0.00000	-3487.47217	28.47847	300.43161	0.00000	0.00000	0.00000	0.00000	0.00000	0.00000
2057	8.22400	-3443.17188	1061.52075	312.98593	-3647.18799	1025.83020	375.02386	-3493.89673	719.86249	420.59229	0.00000	0.00000	0.00000	-3567.06641	714.56573	410.64667	-3565.31006	656.98297	402.92953	-3513.50513	548.08185	385.49051	-3506.91040	543.40112	267.85516	0.00000	0.00000	0.00000	0.00000	0.00000	0.00000	-3448.66553	374.66431	395.40753	-3435.69995	334.22354	386.02377	-3370.36938	117.57977	335.34418	-3401.11914	131.64076	254.62936	0.00000	0.00000	0.00000	0.00000	0.00000	0.00000	-3711.98291	718.56421	78.73484	0.00000	0.00000	0.00000	0.00000	0.00000	0.00000	-3641.42456	1029.35608	144.85843	0.00000	0.00000	0.00000	-3763.56885	572.11621	105.24416	-3740.42554	664.40125	88.39725	0.00000	0.00000	0.00000	0.00000	0.00000	0.00000	-3762.04834	546.59955	216.06563	0.00000	0.00000	0.00000	0.00000	0.00000	0.00000	-3777.52881	417.39227	86.00310	-3786.86304	372.40833	88.03490	-3815.92578	134.24178	112.36326	0.00000	0.00000	0.00000	0.00000	0.00000	0.00000	-3487.60205	28.41039	300.45654	0.00000	0.00000	0.00000	0.00000	0.00000	0.00000
2058	8.22800	0.00000	0.00000	0.00000	-3651.30225	1025.22095	374.79111	-3496.47339	719.77411	420.56833	0.00000	0.00000	0.00000	-3569.59058	714.16211	410.47528	-3567.66919	656.67322	402.75314	-3515.31738	547.97986	385.44394	-3508.63281	543.27679	267.71561	0.00000	0.00000	0.00000	-3386.63135	347.35535	379.49744	-3449.85620	375.39716	394.64679	-3436.54346	334.32031	386.05200	-3370.27832	117.27782	335.56567	-3401.43433	131.89661	254.64003	0.00000	0.00000	0.00000	0.00000	0.00000	0.00000	-3714.30615	716.68597	78.24295	0.00000	0.00000	0.00000	0.00000	0.00000	0.00000	-3646.11938	1028.70422	144.54730	0.00000	0.00000	0.00000	-3765.89673	570.55627	104.92306	-3742.46948	662.39008	87.73176	0.00000	0.00000	0.00000	0.00000	0.00000	0.00000	-3764.32666	544.94629	215.79514	0.00000	0.00000	0.00000	0.00000	0.00000	0.00000	-3783.17896	416.77744	85.80711	-3793.55615	372.06360	87.81001	0.00000	0.00000	0.00000	-3594.35229	115.48711	257.31561	0.00000	0.00000	0.00000	-3487.75537	28.33585	300.46942	0.00000	0.00000	0.00000	0.00000	0.00000	0.00000
2059	8.23200	-3451.89673	1060.55505	311.92560	-3655.51440	1024.65613	374.59320	-3499.08960	719.68793	420.56653	0.00000	0.00000	0.00000	-3572.25073	713.83691	410.31226	-3570.08496	656.30389	402.54919	-3517.05347	547.80322	385.42654	-3510.23584	543.12592	267.67010	0.00000	0.00000	0.00000	0.00000	0.00000	0.00000	-3450.97363	375.52682	394.72800	-3437.51978	334.50943	386.07138	-3370.56543	117.52515	335.61499	-3401.75195	132.14682	254.65134	-3311.91626	93.32822	284.54974	0.00000	0.00000	0.00000	-3716.58765	714.78937	77.70181	0.00000	0.00000	0.00000	0.00000	0.00000	0.00000	-3650.68921	1027.96082	144.29202	0.00000	0.00000	0.00000	-3768.36890	569.10950	104.44312	-3744.44019	660.32117	87.05471	0.00000	0.00000	0.00000	0.00000	0.00000	0.00000	-3766.57471	543.34271	215.48575	0.00000	0.00000	0.00000	0.00000	0.00000	0.00000	-3788.83228	416.24323	85.61935	-3800.14746	371.67532	87.68499	0.00000	0.00000	0.00000	-3594.45068	115.42725	257.34656	0.00000	0.00000	0.00000	-3487.86353	28.27003	300.49872	0.00000	0.00000	0.00000	0.00000	0.00000	0.00000
2060	8.23600	0.00000	0.00000	0.00000	-3659.82812	1024.09204	374.41281	-3501.84692	719.65363	420.55536	0.00000	0.00000	0.00000	-3574.96826	713.52173	410.13306	-3572.51709	655.95490	402.34720	-3519.53076	548.45184	385.00735	-3512.03271	542.99744	267.52612	0.00000	0.00000	0.00000	-3388.61255	348.15839	379.43063	-3451.97705	374.98547	395.45432	-3438.50806	334.63226	386.09940	-3370.83618	117.78670	335.65738	-3401.97583	132.31117	254.69299	0.00000	0.00000	0.00000	0.00000	0.00000	0.00000	-3718.92993	712.94482	77.12337	0.00000	0.00000	0.00000	0.00000	0.00000	0.00000	-3655.39941	1027.26672	144.03593	0.00000	0.00000	0.00000	-3771.01465	567.66492	104.01285	-3746.36523	658.26825	86.23619	0.00000	0.00000	0.00000	0.00000	0.00000	0.00000	-3768.81567	541.80597	215.16696	0.00000	0.00000	0.00000	0.00000	0.00000	0.00000	-3794.48584	415.76691	85.46287	-3806.73828	371.40091	87.57053	0.00000	0.00000	0.00000	-3594.61206	115.42865	257.35196	0.00000	0.00000	0.00000	-3487.99268	28.22552	300.53915	0.00000	0.00000	0.00000	0.00000	0.00000	0.00000
2061	8.24000	0.00000	0.00000	0.00000	-3663.97046	1023.43634	374.19559	-3504.68628	719.57440	420.52716	0.00000	0.00000	0.00000	-3577.68384	713.11188	409.99268	-3569.00342	653.07025	400.21051	-3520.96753	547.49377	385.37396	0.00000	0.00000	0.00000	0.00000	0.00000	0.00000	-3389.74390	348.57553	379.48419	-3453.15405	375.64532	394.72324	-3439.45557	334.74786	386.10260	-3371.32202	118.48409	335.46115	-3402.21021	132.44215	254.73650	0.00000	0.00000	0.00000	0.00000	0.00000	0.00000	-3721.26245	711.13367	76.51026	0.00000	0.00000	0.00000	0.00000	0.00000	0.00000	-3660.10522	1026.52490	143.75386	0.00000	0.00000	0.00000	-3773.73535	566.34747	103.48695	-3748.24756	656.17462	85.31250	0.00000	0.00000	0.00000	0.00000	0.00000	0.00000	-3771.06494	540.36121	214.77737	0.00000	0.00000	0.00000	0.00000	0.00000	0.00000	-3800.11548	415.27948	85.31061	-3813.26196	371.13821	87.38628	0.00000	0.00000	0.00000	-3594.73047	115.36411	257.36963	0.00000	0.00000	0.00000	-3488.09424	28.15417	300.57153	0.00000	0.00000	0.00000	0.00000	0.00000	0.00000
2062	8.24400	0.00000	0.00000	0.00000	-3668.26514	1022.81348	374.01193	-3507.47119	719.46948	420.48401	0.00000	0.00000	0.00000	-3580.49805	712.74390	409.85696	-3571.55078	652.70166	400.05109	-3523.03296	547.33197	385.32489	-3515.81812	542.75806	267.29877	0.00000	0.00000	0.00000	0.00000	0.00000	0.00000	-3454.48950	375.70383	394.68680	-3440.63989	334.90198	386.11060	-3371.96704	118.74776	335.68472	-3402.50024	132.62123	254.76234	0.00000	0.00000	0.00000	0.00000	0.00000	0.00000	-3723.68799	709.34711	75.82549	0.00000	0.00000	0.00000	0.00000	0.00000	0.00000	-3664.76611	1025.67029	143.50275	0.00000	0.00000	0.00000	-3776.55444	565.01935	102.88847	-3750.19458	654.11035	84.23360	0.00000	0.00000	0.00000	0.00000	0.00000	0.00000	-3773.30225	538.95587	214.27985	0.00000	0.00000	0.00000	0.00000	0.00000	0.00000	-3805.75586	414.88855	85.06194	-3819.66699	370.88818	87.24998	0.00000	0.00000	0.00000	-3594.79858	115.26464	257.43271	0.00000	0.00000	0.00000	-3488.15015	28.02154	300.58182	0.00000	0.00000	0.00000	0.00000	0.00000	0.00000
2063	8.24800	0.00000	0.00000	0.00000	-3672.54175	1022.13580	373.87500	-3510.31665	719.27991	420.41940	0.00000	0.00000	0.00000	-3583.33740	712.30273	409.72214	-3574.12354	652.32538	399.92184	-3525.15576	547.15973	385.27985	-3517.87964	542.65479	267.19913	0.00000	0.00000	0.00000	-3392.03711	349.11392	379.39380	-3455.74731	375.81903	394.75201	-3441.66357	334.96844	386.09863	-3372.29468	119.07401	335.78375	-3402.87549	132.89020	254.76559	0.00000	0.00000	0.00000	0.00000	0.00000	0.00000	-3726.58252	708.32587	74.93881	0.00000	0.00000	0.00000	0.00000	0.00000	0.00000	-3669.55273	1024.86169	143.28992	0.00000	0.00000	0.00000	-3779.60864	563.73816	102.31872	-3752.38940	652.19464	83.08510	0.00000	0.00000	0.00000	0.00000	0.00000	0.00000	-3775.74634	537.72083	213.77831	0.00000	0.00000	0.00000	0.00000	0.00000	0.00000	-3811.24243	414.47491	84.83826	-3825.96094	370.67313	87.07799	0.00000	0.00000	0.00000	-3594.95020	115.18737	257.42474	0.00000	0.00000	0.00000	-3488.24829	27.87717	300.61276	0.00000	0.00000	0.00000	0.00000	0.00000	0.00000
2064	8.25200	0.00000	0.00000	0.00000	-3676.74512	1021.43085	373.69064	-3513.28223	719.13141	420.36945	0.00000	0.00000	0.00000	-3586.24561	711.85193	409.58188	-3576.80371	651.96436	399.76785	-3527.30322	546.89911	385.22159	-3519.96411	542.54022	267.10986	0.00000	0.00000	0.00000	-3393.18018	349.32104	379.31470	-3457.05737	375.24945	395.45462	-3442.98389	335.13202	386.11548	-3372.07153	119.28146	335.28073	-3403.17627	133.09885	254.78503	0.00000	0.00000	0.00000	0.00000	0.00000	0.00000	-3729.37451	706.88873	74.32539	0.00000	0.00000	0.00000	0.00000	0.00000	0.00000	-3674.31836	1024.07153	143.04587	0.00000	0.00000	0.00000	-3782.65625	562.50873	101.70899	-3754.79614	650.50067	81.91185	0.00000	0.00000	0.00000	0.00000	0.00000	0.00000	-3778.27466	536.59698	213.23399	0.00000	0.00000	0.00000	0.00000	0.00000	0.00000	-3816.63477	414.04074	84.60911	-3832.16553	370.49597	86.88725	0.00000	0.00000	0.00000	-3595.09668	115.09717	257.43604	0.00000	0.00000	0.00000	-3488.32080	27.77677	300.63470	0.00000	0.00000	0.00000	0.00000	0.00000	0.00000
